<svg xmlns="http://www.w3.org/2000/svg" width="64" height="64" viewBox="0 0 64 64"><rect width="64" height="64" rx="14.08" fill="#1B222B"/><svg x="10.240000000000002" y="24.28509090909091" width="43.519999999999996" height="15.429818181818181" viewBox="0 0 220 78"><mask id="b"><rect x="0" y="0" width="220" height="8" fill="#fff"/><rect x="0" y="10" width="220" height="8" fill="#fff"/><rect x="0" y="20" width="220" height="8" fill="#fff"/><rect x="0" y="30" width="220" height="8" fill="#fff"/><rect x="0" y="40" width="220" height="8" fill="#fff"/><rect x="0" y="50" width="220" height="8" fill="#fff"/><rect x="0" y="60" width="220" height="8" fill="#fff"/><rect x="0" y="70" width="220" height="8" fill="#fff"/></mask><g fill="#FFFFFF" mask="url(#b)"><rect x="0" y="0" width="48" height="16"/><rect x="16" y="0" width="16" height="78"/><rect x="0" y="62" width="48" height="16"/><path d="M64 78V0h20l18 35L120 0h20v78h-16V27l-18 33h-8L80 27v51z"/><path d="M212 8H182c-14 0-18 8-18 15.5S168 39 182 39h12c14 0 18 8 18 15.5S208 70 194 70h-30" fill="none" stroke="#FFFFFF" stroke-width="16"/></g></svg></svg>